HIERARCHY
ROOT Hips
{
  OFFSET 0.000000 0.000000 0.000000
  CHANNELS 6 Xposition Yposition Zposition Xrotation Yrotation Zrotation
  JOINT Spine
  {
    OFFSET 1.388230 22.849755 -8.157144
    CHANNELS 3 Xrotation Yrotation Zrotation
    JOINT Chest
    {
      OFFSET 1.388230 22.849755 -8.157144
      CHANNELS 3 Xrotation Yrotation Zrotation
      JOINT Neck
      {
        OFFSET 0.386562 8.498444 -3.690407
        CHANNELS 3 Xrotation Yrotation Zrotation
        JOINT Head
        {
          OFFSET 0.662911 7.396516 -7.447500
          CHANNELS 3 Xrotation Yrotation Zrotation
          End Site
          {
            OFFSET 0.198873 2.218955 -2.234250
          }
        }
      }
      JOINT LeftShoulder
      {
        OFFSET 17.248308 -1.208605 -0.261267
        CHANNELS 3 Xrotation Yrotation Zrotation
        JOINT LeftArm
        {
          OFFSET 7.635523 -21.435821 1.774202
          CHANNELS 3 Xrotation Yrotation Zrotation
          JOINT LeftForeArm
          {
            OFFSET 7.643843 -21.327462 -9.147581
            CHANNELS 3 Xrotation Yrotation Zrotation
            JOINT LeftHand
            {
              OFFSET 0.473402 -5.275506 -2.178749
              CHANNELS 3 Xrotation Yrotation Zrotation
              End Site
              {
                OFFSET 0.142021 -1.582652 -0.653625
              }
            }
          }
        }
      }
      JOINT RightShoulder
      {
        OFFSET -17.248308 1.208605 0.261267
        CHANNELS 3 Xrotation Yrotation Zrotation
        JOINT RightArm
        {
          OFFSET -12.133127 -21.363330 5.693170
          CHANNELS 3 Xrotation Yrotation Zrotation
          JOINT RightForeArm
          {
            OFFSET -7.740244 -22.047532 -5.230031
            CHANNELS 3 Xrotation Yrotation Zrotation
            JOINT RightHand
            {
              OFFSET -0.480044 -5.557554 -1.525311
              CHANNELS 3 Xrotation Yrotation Zrotation
              End Site
              {
                OFFSET -0.144013 -1.667266 -0.457593
              }
            }
          }
        }
      }
    }
  }
  JOINT LeftUpLeg
  {
    OFFSET 11.699587 -0.675443 -0.599665
    CHANNELS 3 Xrotation Yrotation Zrotation
    JOINT LeftLeg
    {
      OFFSET -6.527727 -38.483662 1.737457
      CHANNELS 3 Xrotation Yrotation Zrotation
      JOINT LeftFoot
      {
        OFFSET 3.065902 -35.809878 12.679608
        CHANNELS 3 Xrotation Yrotation Zrotation
        End Site
        {
          OFFSET 0.919771 -10.742963 3.803882
        }
      }
    }
  }
  JOINT RightUpLeg
  {
    OFFSET -11.699587 0.675443 0.599665
    CHANNELS 3 Xrotation Yrotation Zrotation
    JOINT RightLeg
    {
      OFFSET -1.173808 -37.981520 -1.210152
      CHANNELS 3 Xrotation Yrotation Zrotation
      JOINT RightFoot
      {
        OFFSET -7.846448 -39.021816 7.691272
        CHANNELS 3 Xrotation Yrotation Zrotation
        End Site
        {
          OFFSET -2.353934 -11.706545 2.307382
        }
      }
    }
  }
}
MOTION
Frames: 12
Frame Time: 0.083333
-0.003966 60.000000 -0.012840 -3.192085 -0.431179 -1.600441 -3.192085 -0.431179 -1.600441 -1.716235 1.732166 3.310185 -1.788531 2.831820 2.366305 5.000000 0.000000 0.000000 6.165846 2.642407 21.899379 0.735350 0.676189 -1.380204 76.090655 -26.618519 18.967636 0.000000 0.000000 0.000000 13.872593 -12.581044 -56.727975 26.687413 0.722595 -5.606929 126.233916 -9.877169 -5.396870 0.000000 0.000000 0.000000 -0.305175 0.167722 1.458036 0.692378 -0.935543 -2.974554 0.000000 0.000000 0.000000 8.467101 0.760725 -9.620708 3.068591 -0.101369 3.023568 0.000000 0.000000 0.000000
-0.003708 60.000000 -0.011685 -0.785184 -0.345056 -1.073131 -0.785184 -0.345056 -1.073131 -1.047113 1.532049 3.129334 -1.206428 2.641953 2.328830 5.000000 0.000000 0.000000 3.844617 2.272122 21.440631 -1.550374 0.345351 -1.086647 76.225099 -27.690413 19.594428 0.000000 0.000000 0.000000 19.628490 -12.486444 -54.885972 27.549133 -0.683695 -2.561566 6.057370 30.239313 -76.388745 0.000000 0.000000 0.000000 -4.663437 1.084266 3.302875 4.691189 -0.836606 -3.997880 0.000000 0.000000 0.000000 6.380390 0.631897 -9.364599 3.589380 -0.319187 2.407036 0.000000 0.000000 0.000000
-0.003527 60.000000 -0.010763 2.111725 -0.440193 -0.931339 2.111725 -0.440193 -0.931339 -0.428005 1.435749 3.133058 -0.622264 2.626401 2.445493 5.000000 0.000000 0.000000 2.404672 1.963205 20.134802 -2.357295 0.176879 -0.829868 51.401921 -31.620469 34.710607 0.000000 0.000000 0.000000 18.686159 -11.979723 -49.263572 19.852388 -1.174231 -0.651111 -15.961102 11.370077 -77.892910 0.000000 0.000000 0.000000 -4.911324 1.215894 4.259050 3.952528 -0.523195 -2.712240 0.000000 0.000000 0.000000 3.252860 0.437860 -8.803443 5.233145 -0.720133 2.173598 0.000000 0.000000 0.000000
-0.003329 60.000000 -0.009788 4.372211 -0.551233 -0.920437 4.372211 -0.551233 -0.920437 -0.466118 1.438239 3.125446 -0.755843 2.646312 2.434058 5.000000 0.000000 0.000000 0.110810 1.388912 17.393226 -5.144065 -0.161058 -0.534590 34.444053 -32.883825 46.495500 0.000000 0.000000 0.000000 11.632121 -10.095644 -36.994846 11.302730 -0.614340 -0.728107 -40.094639 -3.018033 -37.861325 0.000000 0.000000 0.000000 -3.816251 1.065054 5.199327 4.019057 -0.089234 -1.366511 0.000000 0.000000 0.000000 1.181477 0.318368 -8.377642 5.712571 -0.766579 2.512942 0.000000 0.000000 0.000000
-0.003127 60.000000 -0.008996 6.182053 -0.622642 -0.854027 6.182053 -0.622642 -0.854027 -0.389633 1.438584 3.151994 -0.849630 2.555864 2.329401 5.000000 0.000000 0.000000 -0.257730 1.015779 13.491407 -5.483635 -0.284588 -0.273157 23.094609 -32.498751 53.865683 0.000000 0.000000 0.000000 5.577338 -6.726697 -20.631818 3.815643 0.262718 -2.109656 -59.200363 -4.242458 -23.628421 0.000000 0.000000 0.000000 -2.890076 0.926485 5.847640 4.734851 0.208013 -0.657124 0.000000 0.000000 0.000000 2.134757 0.370337 -8.506167 3.902682 -0.234569 3.228371 0.000000 0.000000 0.000000
-0.002984 60.000000 -0.008307 6.373826 -0.564434 -0.626300 6.373826 -0.564434 -0.626300 -0.617419 1.491059 3.187327 -1.171165 2.399575 2.114244 5.000000 0.000000 0.000000 -0.389022 0.821139 11.432194 -5.558208 -0.289517 -0.272763 20.789713 -32.340701 55.354127 0.000000 0.000000 0.000000 2.729141 -4.143071 -11.881576 0.761754 0.763481 -3.480379 -61.464520 -2.370445 -16.792905 0.000000 0.000000 0.000000 -5.404802 1.600748 6.945045 7.409708 0.282952 -1.298236 0.000000 0.000000 0.000000 1.821053 0.364448 -8.448796 1.843711 0.372832 4.048738 0.000000 0.000000 0.000000
-0.003044 60.000000 -0.007817 5.772854 -0.458531 -0.377076 5.772854 -0.458531 -0.377076 -0.951354 1.572861 3.247506 -1.474481 2.302175 1.962653 5.000000 0.000000 0.000000 -0.898422 0.702189 11.380349 -5.112474 -0.200278 -0.421965 35.864340 -32.670512 45.286684 0.000000 0.000000 0.000000 1.167346 -2.679744 -8.653670 1.762768 0.830750 -3.916563 -56.337286 -3.347873 -22.273967 0.000000 0.000000 0.000000 -6.871240 1.978202 7.228764 8.773177 0.285832 -1.778965 0.000000 0.000000 0.000000 -0.733153 0.216745 -7.642470 3.206659 0.034453 3.966688 0.000000 0.000000 0.000000
-0.003293 60.000000 -0.007353 4.158901 -0.372838 -0.372912 4.158901 -0.372838 -0.372912 -1.535772 1.671623 3.250711 -1.998884 2.259111 1.821376 5.000000 0.000000 0.000000 -2.992245 0.426521 13.473588 -4.329683 0.014569 -0.821652 21.013442 -31.217562 53.586817 0.000000 0.000000 0.000000 -0.962874 -0.551252 -4.078860 2.484877 0.907479 -4.394858 -60.843359 -0.041024 -9.658676 0.000000 0.000000 0.000000 -4.233291 1.244651 6.217479 5.753671 0.350873 -0.460983 0.000000 0.000000 0.000000 1.034620 0.264414 -7.430669 1.914636 0.464947 4.723939 0.000000 0.000000 0.000000
-0.003445 60.000000 -0.006393 0.514944 -0.323922 -0.807509 0.514944 -0.323922 -0.807509 -2.912391 1.882939 3.213735 -3.194386 2.257230 1.593735 5.000000 0.000000 0.000000 -5.753025 0.364524 18.351858 -3.495120 0.345878 -1.426899 42.069178 -31.595802 40.051863 0.000000 0.000000 0.000000 -1.007024 -0.000183 -2.081122 -2.145854 1.123426 -4.795484 -62.389132 -0.629488 -11.253793 0.000000 0.000000 0.000000 -4.522343 1.399575 7.140095 8.501870 0.523302 -0.743554 0.000000 0.000000 0.000000 3.570271 0.298083 -6.544668 3.704613 0.131219 5.307000 0.000000 0.000000 0.000000
-0.003326 60.000000 -0.004780 -3.408759 -0.371869 -1.474956 -3.408759 -0.371869 -1.474956 -3.748753 1.927670 3.043453 -3.856517 1.938493 1.216217 5.000000 0.000000 0.000000 -4.804356 1.539473 27.017776 0.306134 1.169137 -2.496790 79.677099 -22.479588 15.325896 0.000000 0.000000 0.000000 0.247401 -0.658878 -1.987075 -2.130459 1.139956 -4.886386 -62.763267 -1.549738 -13.936676 0.000000 0.000000 0.000000 -5.782313 1.808269 8.336475 11.590799 0.665223 -1.237572 0.000000 0.000000 0.000000 6.896112 0.366819 -6.293365 2.944084 0.376606 5.634661 0.000000 0.000000 0.000000
-0.003047 60.000000 -0.002105 -4.401147 -0.797976 -2.651546 -4.401147 -0.797976 -2.651546 -3.693902 1.538904 2.403126 -3.677931 1.068269 0.562258 5.000000 0.000000 0.000000 -2.796962 2.502319 36.098848 2.149209 2.029038 -3.788986 104.301780 -0.443285 5.084215 0.000000 0.000000 0.000000 0.536950 -0.837172 -2.072408 -0.630898 1.042425 -4.582467 -53.976322 -7.060998 -36.875188 0.000000 0.000000 0.000000 -5.406316 1.729396 8.413976 10.332935 0.827914 -0.230213 0.000000 0.000000 0.000000 7.486503 0.371363 -6.187058 1.439652 0.752527 5.617472 0.000000 0.000000 0.000000
-0.002889 59.998683 0.000608 -5.258832 -1.396669 -4.204682 -5.258832 -1.396669 -4.204682 -4.265256 0.929657 1.232905 -4.025237 0.153547 -0.194587 5.000000 0.000000 0.000000 1.992199 3.287496 45.126212 4.909979 2.822625 -4.650312 106.204770 12.274668 3.710857 0.000000 0.000000 0.000000 0.834365 -1.278005 -3.165901 0.852591 0.945020 -4.307221 -38.413992 -4.496656 -50.979991 0.000000 0.000000 0.000000 -3.481279 1.177911 7.345327 6.143976 0.960047 1.417228 0.000000 0.000000 0.000000 8.806440 0.413134 -6.274070 -0.997499 1.314622 5.354384 0.000000 0.000000 0.000000
